#N canvas 760 195 649 563 10;
#X declare -path metaPdLibs/control;
#X declare -path metaPdLibs/fx;
#X declare -path metaPdLibs/instrument;
#X declare -path metaPdLibs/scales;
#X declare -path control;
#X declare -path fx;
#X declare -path instrument;
#X declare -path scales;
#X obj 33 12 loadMetaPdLibs;
#X obj 31 57 adc~;
#X obj 29 139 dac~;
#X obj 34 100 graindelay~;
#X obj 204 10 loadbang;
#X msg 213 77 \; pd dsp 1;
#X obj 191 135 print;
#X msg 191 111 turned dsp on.;
#X connect 1 0 3 0;
#X connect 3 0 2 0;
#X connect 4 0 5 0;
#X connect 4 0 7 0;
#X connect 7 0 6 0;
