#N canvas 951 173 649 563 10;
#X declare -path metaPdLibs/control;
#X declare -path metaPdLibs/fx;
#X declare -path metaPdLibs/instrument;
#X declare -path metaPdLibs/scales;
#X declare -path control;
#X declare -path fx;
#X declare -path instrument;
#X declare -path scales;
#X obj 33 12 loadMetaPdLibs;
#X obj 31 57 adc~;
#X obj 29 139 dac~;
#X obj 34 100 graindelay~;
#X obj 552 7 loadbang;
#X msg 561 74 \; pd dsp 1;
#X obj 539 132 print;
#X msg 539 108 turned dsp on.;
#X obj 180 -17 receive fromGUI;
#X obj 180 5 list trim;
#X obj 180 27 route /slider /button;
#X obj 180 49 route /1 /2 /3 /4 /5;
#X obj 312 49 route /1 /2 /3 /4 /5;
#X obj 163 138 print;
#X floatatom 185 108 5 0 0 0 - - -, f 5;
#X connect 1 0 3 0;
#X connect 3 0 2 0;
#X connect 4 0 5 0;
#X connect 4 0 7 0;
#X connect 7 0 6 0;
#X connect 8 0 9 0;
#X connect 9 0 10 0;
#X connect 10 0 11 0;
#X connect 10 1 12 0;
#X connect 11 0 14 0;
